<?xml version="1.0" encoding="utf-8"?>
<!-- Generator: Adobe Illustrator 23.1.0, SVG Export Plug-In . SVG Version: 6.00 Build 0)  -->
<svg version="1.1" id="Слой_1" xmlns="http://www.w3.org/2000/svg" xmlns:xlink="http://www.w3.org/1999/xlink" x="0px" y="0px"
	 viewBox="0 0 200 200" style="enable-background:new 0 0 200 200;" xml:space="preserve">
<style type="text/css">
	.st0{fill:#5F6A75;}
	.st1{fill:#6A99CE;}
	.st2{enable-background:new    ;}
	.st3{fill:#013500;}
	.st4{fill:#005FD4;}
</style>
<g>
	<g>
		<path class="st0" d="M412,312.3c-121.3,62.4-79.2,54.8-132,27.6l94.2-49.8l-28.9-17c57.7-31.6,25.3-21.5,133.5,36.1
			C428.5,335.9,447.8,331.1,412,312.3z"/>
	</g>
	<g>
		<path class="st1" d="M413.2,303.1c-121.3,62.4-79.2,54.8-132,27.6l94.2-49.8l-28.9-17c57.7-31.6,25.3-21.5,133.5,36.1
			C429.7,326.7,449,322,413.2,303.1z"/>
	</g>
	<g>
		<g class="st2">
			<path class="st3" d="M348.4,222.1L348.4,222.1l-0.1,16.7H346v-38h2.3v5.3h0.1c0.9-2,2.2-3.4,4-4.4c14.7-7.4,20.3,12.2,12.9,21.6
				c-2.1,2.7-4.9,4-8.5,4C353.1,227.5,350.2,225.7,348.4,222.1z M348.3,212.5v3.3c0,2.6,0.8,4.8,2.5,6.8c2.8,3.3,9.7,4.3,13-0.5
				c6.9-10-1.2-26.7-13-16.7C349.1,207.4,348.3,209.8,348.3,212.5z"/>
		</g>
		<g class="st2">
			<path class="st3" d="M377.4,246.3v-4.7h-0.1c-5,9.4-18.5,6-17.6-6.2v-15.1h2.3v14.4c0,3.5,0.5,6.1,1.7,7.7
				c5,5.5,14.1,0.7,13.5-7.5v-14.6h2.3v26H377.4z"/>
		</g>
		<g class="st2">
			<path class="st3" d="M344.6,264.7V262c0.9,0.8,2,1.3,3.3,1.8c4.4,2.2,12.9-1.6,8.1-7.3c-0.9-0.8-2.3-1.7-4.4-2.5
				c-2.5-1-4.3-2.2-5.2-3.4c-1.9-2-2.4-6.8,0.9-9.4c2.4-2.1,8-2.7,11.7-0.5v2.6c-7.3-5.8-18.7,3.4-6.2,8.6
				c9.8,2.7,9.5,14.3-1.6,14.7C348.4,266.5,346.3,265.9,344.6,264.7z"/>
		</g>
		<g class="st2">
			<path class="st3" d="M370.5,285c-3.6,2-9.7,0.4-9.1-6v-17.4h-4.7v-2.2h4.7v-6.8c0.4-0.1,0.8-0.3,1.2-0.4c0.4-0.1,0.8-0.3,1.2-0.4
				v7.5h6.9v2.1h-6.9v17.2c0,1.8,0.3,3.1,0.9,3.9c1.5,1.2,2.5,1.8,6,0.3v2.2H370.5z"/>
		</g>
		<g class="st2">
			<path class="st3" d="M356.4,305.5c-11.4,0.5-15.4-14.3-9.5-22.7c13.9-14.5,29.1,5.8,18.8,18.9
				C363.3,304.2,360.3,305.5,356.4,305.5z M356.6,280.4c-3.1,0-5.5,1-7.3,3.1c-8.3,10.7,3,26.8,14.6,16.9c3.1-3.3,3.7-13.1,0.1-17
				C362.1,281.3,359.6,280.4,356.6,280.4z"/>
		</g>
		<g class="st2">
			<path class="st3" d="M368.7,324.4h-2.1l-10-26h2.6l7.8,20.7c0.4,1,0.7,2,0.8,2.7h0.1c0.3-1,0.5-2,0.8-2.6l8.1-20.8h2.6
				L368.7,324.4z"/>
		</g>
	</g>
	<circle class="st4" cx="378.7" cy="292.5" r="2"/>
	<circle class="st4" cx="378.7" cy="271.7" r="2"/>
	<circle class="st4" cx="378.7" cy="251" r="2"/>
</g>
<g>
	<g>
		<path class="st0" d="M130.9,131.5L37.2,181l-37.5-22.1l93.6-49.5L64.6,92.5l37.7-20l95,55.8l-37.7,20L130.9,131.5z"/>
	</g>
	<g>
		<path class="st1" d="M132.1,122.3l-93.6,49.5L0.9,149.8l93.6-49.5L65.8,83.4l37.7-20l95,55.8l-37.7,20L132.1,122.3z"/>
	</g>
	<g>
		<g class="st2">
			<path class="st3" d="M67.7,41.9L67.7,41.9l-0.1,16.6h-2.3V20.6h2.3v5.3h0.1c0.9-1.9,2.2-3.4,4-4.4c1.7-1,3.6-1.6,5.7-1.6
				c3.2,0,5.8,1.2,7.6,3.4s2.7,5.3,2.7,9.2c0,4.3-1,7.9-3.2,10.5c-2.1,2.7-4.9,4-8.4,4C72.4,47.2,69.5,45.3,67.7,41.9z M67.6,32.3
				v3.2c0,2.6,0.8,4.8,2.5,6.7c1.7,1.8,3.8,2.8,6.5,2.8c2.6,0,4.8-1.2,6.5-3.4c1.7-2.3,2.5-5.3,2.5-8.9c0-3.2-0.8-5.8-2.3-7.8
				s-3.5-2.8-6.1-2.8c-3,0-5.3,1-7,3C68.3,27.2,67.6,29.6,67.6,32.3z"/>
		</g>
		<g class="st2">
			<path class="st3" d="M96.5,65.9v-4.7h-0.1c-1.8,3.5-4.5,5.3-8.3,5.3c-6.1,0-9.2-3.9-9.2-11.5V40h2.3v14.4c0,3.5,0.5,6.1,1.7,7.6
				c1.2,1.6,3,2.3,5.4,2.3s4.4-0.9,5.8-2.7c1.4-1.8,2.2-4.1,2.2-7.1V40h2.3v25.9H96.5z"/>
		</g>
		<g class="st2">
			<path class="st3" d="M64,84.1v-2.7c0.9,0.8,1.9,1.3,3.2,1.8c1.3,0.4,2.3,0.6,3.2,0.6c4,0,6.1-1.7,6.1-4.9c0-1.2-0.4-2.1-1.3-3
				c-0.9-0.8-2.3-1.7-4.4-2.5c-2.5-1-4.3-2.2-5.2-3.4c-1-1.2-1.6-2.6-1.6-4.3c0-2.1,0.8-3.8,2.5-5c1.6-1.3,3.6-1.9,5.9-1.9
				c2.2,0,4.1,0.5,5.7,1.4v2.6c-1.9-1.3-3.9-1.8-5.9-1.8c-1.7,0-3.1,0.4-4.1,1.3c-1,0.9-1.6,2.1-1.6,3.5c0,1.3,0.4,2.2,1,3
				c0.6,0.8,2.1,1.7,4.4,2.6c2.7,1.2,4.5,2.3,5.6,3.4c1,1,1.6,2.5,1.6,4.1c0,2.1-0.8,3.8-2.3,5c-1.6,1.3-3.6,2.1-6.3,2.1
				C67.7,86,65.6,85.3,64,84.1z"/>
		</g>
		<g class="st2">
			<path class="st3" d="M89.7,104.3c-1.2,0.5-2.3,0.9-3.4,0.9c-3.9,0-5.7-2.3-5.7-6.9V81H76v-2.2h4.7v-6.7c0.4-0.1,0.8-0.3,1.2-0.4
				c0.4-0.1,0.8-0.3,1.2-0.4v7.5h6.9v2.1H83V98c0,1.8,0.3,3.1,0.9,3.9c0.5,0.8,1.6,1.2,2.8,1.2c0.9,0,1.9-0.3,3.1-0.9v2.2H89.7z"/>
		</g>
		<g class="st2">
			<path class="st3" d="M75.6,124.8c-3.8,0-6.7-1.3-8.9-3.8s-3.2-5.7-3.2-9.7c0-4.3,1.2-7.6,3.5-10.1s5.3-3.6,9.1-3.6
				c3.8,0,6.6,1.2,8.8,3.6s3.2,5.7,3.2,10c0,4-1,7.2-3.2,9.8C82.4,123.5,79.5,124.8,75.6,124.8z M75.8,99.8c-3.1,0-5.4,1-7.2,3.1
				c-1.8,2.1-2.7,4.9-2.7,8.5c0,3.4,0.9,6.1,2.7,8.1s4.1,3.1,7.2,3.1c3.1,0,5.6-1,7.2-3c1.7-2.1,2.6-4.8,2.6-8.4
				c0-3.8-0.8-6.5-2.5-8.5C81.3,100.7,78.8,99.8,75.8,99.8z"/>
		</g>
		<g class="st2">
			<path class="st3" d="M87.9,143.5h-2.1l-10-25.9h2.6l7.8,20.6c0.4,1,0.6,1.9,0.8,2.7h0.1c0.3-1,0.5-1.9,0.8-2.6l8-20.7h2.6
				L87.9,143.5z"/>
		</g>
	</g>
	<circle class="st4" cx="97.8" cy="111.7" r="1.9"/>
	<circle class="st4" cx="97.8" cy="91.2" r="1.9"/>
	<circle class="st4" cx="97.8" cy="70.6" r="1.9"/>
</g>
</svg>
