<?xml version="1.0" encoding="utf-8"?>
<!-- Generator: Adobe Illustrator 23.1.0, SVG Export Plug-In . SVG Version: 6.00 Build 0)  -->
<svg version="1.1" id="Слой_1" xmlns="http://www.w3.org/2000/svg" xmlns:xlink="http://www.w3.org/1999/xlink" x="0px" y="0px"
	 viewBox="0 0 375 667" style="enable-background:new 0 0 375 667;" xml:space="preserve">
<style type="text/css">
	.st0{fill:url(#SVGID_1_);}
	.st1{enable-background:new    ;}
	.st2{fill:#04FF2E;}
</style>
<g>
	<g id="b">
		<g>
			
				<linearGradient id="SVGID_1_" gradientUnits="userSpaceOnUse" x1="141.124" y1="434.3508" x2="141.124" y2="433.3508" gradientTransform="matrix(375 0 0 -667 -52734 289712)">
				<stop  offset="0" style="stop-color:#0019FF;stop-opacity:0.98"/>
				<stop  offset="1" style="stop-color:#B7005B"/>
			</linearGradient>
			<rect class="st0" width="375" height="667"/>
		</g>
		<g>
			<g class="st1">
				<path class="st2" d="M197.1,296.4L197.1,296.4l-0.1,12.8h-1.8V280h1.8v4.1h0.1c0.7-1.5,1.7-2.6,3.1-3.4c1.3-0.8,2.8-1.2,4.4-1.2
					c2.5,0,4.5,0.9,5.9,2.6s2.1,4.1,2.1,7.1c0,3.3-0.8,6.1-2.5,8.1c-1.6,2.1-3.8,3.1-6.5,3.1C200.7,300.5,198.5,299.1,197.1,296.4z
					 M197,289v2.5c0,2,0.6,3.7,1.9,5.2c1.3,1.4,2.9,2.2,5,2.2c2,0,3.7-0.9,5-2.6c1.3-1.8,1.9-4.1,1.9-6.9c0-2.5-0.6-4.5-1.8-6
					s-2.7-2.2-4.7-2.2c-2.3,0-4.1,0.8-5.4,2.3C197.6,285.1,197,286.9,197,289z"/>
			</g>
			<g class="st1">
				<path class="st2" d="M219.4,315v-3.6h-0.1c-1.4,2.7-3.5,4.1-6.4,4.1c-4.7,0-7.1-3-7.1-8.9V295h1.8v11.1c0,2.7,0.4,4.7,1.3,5.9
					c0.9,1.2,2.3,1.8,4.2,1.8c1.9,0,3.4-0.7,4.5-2.1s1.7-3.2,1.7-5.5V295h1.8v20H219.4z"/>
			</g>
			<g class="st1">
				<path class="st2" d="M194.2,329.1V327c0.7,0.6,1.5,1,2.5,1.4c1,0.3,1.8,0.5,2.5,0.5c3.1,0,4.7-1.3,4.7-3.8c0-0.9-0.3-1.6-1-2.3
					c-0.7-0.6-1.8-1.3-3.4-1.9c-1.9-0.8-3.3-1.7-4-2.6c-0.8-0.9-1.2-2-1.2-3.3c0-1.6,0.6-2.9,1.9-3.9c1.2-1,2.8-1.5,4.6-1.5
					c1.7,0,3.2,0.4,4.4,1.1v2c-1.5-1-3-1.4-4.6-1.4c-1.3,0-2.4,0.3-3.2,1c-0.8,0.7-1.2,1.6-1.2,2.7c0,1,0.3,1.7,0.8,2.3
					s1.6,1.3,3.4,2c2.1,0.9,3.5,1.8,4.3,2.6s1.2,1.9,1.2,3.2c0,1.6-0.6,2.9-1.8,3.9s-2.8,1.6-4.9,1.6
					C197.1,330.5,195.5,330,194.2,329.1z"/>
			</g>
			<g class="st1">
				<path class="st2" d="M214.1,344.7c-0.9,0.4-1.8,0.7-2.6,0.7c-3,0-4.4-1.8-4.4-5.3v-13.4h-3.6V325h3.6v-5.2
					c0.3-0.1,0.6-0.2,0.9-0.3c0.3-0.1,0.6-0.2,0.9-0.3v5.8h5.3v1.6h-5.3v13.2c0,1.4,0.2,2.4,0.7,3c0.4,0.6,1.2,0.9,2.2,0.9
					c0.7,0,1.5-0.2,2.4-0.7V344.7z"/>
			</g>
			<g class="st1">
				<path class="st2" d="M203.2,360.5c-2.9,0-5.2-1-6.9-2.9s-2.5-4.4-2.5-7.5c0-3.3,0.9-5.9,2.7-7.8s4.1-2.8,7-2.8
					c2.9,0,5.1,0.9,6.8,2.8c1.7,1.9,2.5,4.4,2.5,7.7c0,3.1-0.8,5.6-2.5,7.6C208.5,359.5,206.2,360.5,203.2,360.5z M203.4,341.2
					c-2.4,0-4.2,0.8-5.6,2.4c-1.4,1.6-2.1,3.8-2.1,6.6c0,2.6,0.7,4.7,2.1,6.3s3.2,2.4,5.6,2.4c2.4,0,4.3-0.8,5.6-2.3
					c1.3-1.6,2-3.7,2-6.5c0-2.9-0.6-5-1.9-6.6C207.6,341.9,205.7,341.2,203.4,341.2z"/>
			</g>
			<g class="st1">
				<path class="st2" d="M212.7,375h-1.6l-7.7-20h2l6,15.9c0.3,0.8,0.5,1.5,0.6,2.1h0.1c0.2-0.8,0.4-1.5,0.6-2l6.2-16h2L212.7,375z"
					/>
			</g>
			<g class="st1">
				<path class="st2" d="M180.5,280.6v10H171v-10H180.5z M178.7,307.1v75.1h-5.9v-75.1H178.7z"/>
			</g>
			<g class="st1">
				<path class="st2" d="M227.2,271.9v5.4h-36.7v105h-6.2v-105h-36.5v-5.4H227.2z"/>
			</g>
		</g>
	</g>
</g>
</svg>
